<?xml version="1.0" ?><!DOCTYPE svg  PUBLIC '-//W3C//DTD SVG 1.1//EN'  'http://www.w3.org/Graphics/SVG/1.1/DTD/svg11.dtd'><svg enable-background="new 0 0 150 150" height="150px" id="Layer_1" version="1.1" viewBox="0 0 150 150" width="150px" xml:space="preserve" xmlns="http://www.w3.org/2000/svg" xmlns:xlink="http://www.w3.org/1999/xlink"><g><circle cx="1214.981" cy="-1064.96" fill="#118ACB" opacity="0.1" r="75"/><path d="M1214.981-1139.96v150c41.42,0,75-33.579,75-75.001   C1289.981-1106.382,1256.401-1139.96,1214.981-1139.96z" fill="#118ACB" opacity="0.1"/><circle cx="1214.981" cy="-1064.96" fill="#118ACB" r="65.488"/><path d="M1214.981-1130.448v130.976c36.168,0,65.486-29.319,65.486-65.488   C1280.468-1101.128,1251.149-1130.448,1214.981-1130.448z" fill="#1281BD"/><g><path d="M1149.565-1067.888c-0.041,0.971-0.072,1.945-0.072,2.927c0,36.169,29.32,65.488,65.488,65.488v-5.853    C1179.794-1005.325,1151.099-1033.078,1149.565-1067.888z" fill="#1281BD"/><path d="M1280.396-1067.888c-1.533,34.81-30.229,62.562-65.414,62.562v5.853c36.168,0,65.486-29.319,65.486-65.488    C1280.468-1065.942,1280.438-1066.917,1280.396-1067.888z" fill="#1178B1"/></g></g><path d="M1171.402-1056.568v-11.797c0-1.002,0.814-1.822,1.824-1.822h20.399l-8.863,15.446h-11.532  C1172.217-1054.742,1171.402-1055.566,1171.402-1056.568z M1185.92-1031.629l-6.78,4.608c-0.917,0.627-1.56,0.237-1.436-0.87  l0.909-7.904c0.126-1.096,1.016-1.55,1.974-0.996l5.249,3.01C1186.802-1033.227,1186.839-1032.259,1185.92-1031.629z   M1190.307-1036.829c-0.554,0.959-1.792,1.293-2.753,0.739l-5.25-3.016c-0.957-0.549-1.294-1.788-0.741-2.75l7.401-12.889  l8.87-15.445l8.047-14.02c0.548-0.957,1.792-1.297,2.751-0.739l5.246,3.007c0.963,0.559,1.294,1.794,0.741,2.752l-7.379,12.856  l-6.644,11.588L1190.307-1036.829z M1204.799-1054.742l8.863-15.446h8.029c3.105,7.061,5.423,11.99,7.167,15.446H1204.799z   M1236.204-1049.562c-2.097-1.062-12.57-25.226-15.253-31.526c-2.684-6.311-10.788-23.089-8.172-24.399  c1.871-0.931,8.571,12.279,13.586,20.211c2.863,4.533,7.509,13.138,11.21,20.129c0.048,0.089,0.094,0.185,0.144,0.276  c0.164,0.314,0.331,0.629,0.495,0.938c0.05,0.09,0.094,0.174,0.138,0.259c0.15,0.276,0.289,0.549,0.431,0.819  c0.08,0.159,0.162,0.31,0.242,0.453c0.091,0.183,0.187,0.364,0.279,0.536c0.125,0.237,0.252,0.471,0.378,0.703  c0.016,0.049,0.04,0.083,0.059,0.127c1.603,3.043,2.827,5.389,3.312,6.296c0.038,0.071,0.078,0.142,0.104,0.192  c1.289,2.336-1.227,4.289-2.631,4.864C1239.119-1049.103,1238.306-1048.517,1236.204-1049.562z M1243.086-1038.457l-3.162-4.999  c-0.65-1.044-0.318-2.325,0.743-2.878l3.012-1.548c1.065-0.542,2.395-0.1,2.964,0.983l2.498,4.804  c0.564,1.087,0.181,2.483-0.847,3.093l-2.15,1.287C1245.12-1037.089,1243.737-1037.427,1243.086-1038.457z M1255.941-1024.132  c-0.663-2.125-5.709-2.262-7.972-5.449c-2.264-3.185-0.393-4.811,0.393-5.571C1257.53-1040.318,1255.941-1024.132,1255.941-1024.132  z M1258.562-1056.568c0,1.001-0.812,1.826-1.824,1.826h-9.786c-0.132-0.533-0.326-1.058-0.6-1.561  c-0.268-0.474-1.015-1.897-1.959-3.701c-1.359-2.594-3.292-6.274-5.379-10.182h17.722c1.011,0,1.824,0.82,1.824,1.822v11.794  H1258.562z" fill="#FFFFFF"/><g><circle cx="1214.981" cy="-1064.96" fill="#118ACB" opacity="0.1" r="75"/><path d="M1214.981-1139.96v150c41.42,0,75-33.579,75-75.001   C1289.981-1106.382,1256.401-1139.96,1214.981-1139.96z" fill="#118ACB" opacity="0.1"/><circle cx="1214.981" cy="-1064.96" fill="#118ACB" r="65.488"/><path d="M1214.981-1130.448v130.976c36.168,0,65.486-29.319,65.486-65.488   C1280.468-1101.128,1251.149-1130.448,1214.981-1130.448z" fill="#1281BD"/><g><path d="M1149.565-1067.888c-0.041,0.971-0.072,1.945-0.072,2.927c0,36.169,29.32,65.488,65.488,65.488v-5.853    C1179.794-1005.325,1151.099-1033.078,1149.565-1067.888z" fill="#1281BD"/><path d="M1280.396-1067.888c-1.533,34.81-30.229,62.562-65.414,62.562v5.853c36.168,0,65.486-29.319,65.486-65.488    C1280.468-1065.942,1280.438-1066.917,1280.396-1067.888z" fill="#1178B1"/></g></g><path d="M1171.402-1056.568v-11.797c0-1.002,0.814-1.822,1.824-1.822h20.399l-8.863,15.446h-11.532  C1172.217-1054.742,1171.402-1055.566,1171.402-1056.568z M1185.92-1031.629l-6.78,4.608c-0.917,0.627-1.56,0.237-1.436-0.87  l0.909-7.904c0.126-1.096,1.016-1.55,1.974-0.996l5.249,3.01C1186.802-1033.227,1186.839-1032.259,1185.92-1031.629z   M1190.307-1036.829c-0.554,0.959-1.792,1.293-2.753,0.739l-5.25-3.016c-0.957-0.549-1.294-1.788-0.741-2.75l7.401-12.889  l8.87-15.445l8.047-14.02c0.548-0.957,1.792-1.297,2.751-0.739l5.246,3.007c0.963,0.559,1.294,1.794,0.741,2.752l-7.379,12.856  l-6.644,11.588L1190.307-1036.829z M1204.799-1054.742l8.863-15.446h8.029c3.105,7.061,5.423,11.99,7.167,15.446H1204.799z   M1236.204-1049.562c-2.097-1.062-12.57-25.226-15.253-31.526c-2.684-6.311-10.788-23.089-8.172-24.399  c1.871-0.931,8.571,12.279,13.586,20.211c2.863,4.533,7.509,13.138,11.21,20.129c0.048,0.089,0.094,0.185,0.144,0.276  c0.164,0.314,0.331,0.629,0.495,0.938c0.05,0.09,0.094,0.174,0.138,0.259c0.15,0.276,0.289,0.549,0.431,0.819  c0.08,0.159,0.162,0.31,0.242,0.453c0.091,0.183,0.187,0.364,0.279,0.536c0.125,0.237,0.252,0.471,0.378,0.703  c0.016,0.049,0.04,0.083,0.059,0.127c1.603,3.043,2.827,5.389,3.312,6.296c0.038,0.071,0.078,0.142,0.104,0.192  c1.289,2.336-1.227,4.289-2.631,4.864C1239.119-1049.103,1238.306-1048.517,1236.204-1049.562z M1243.086-1038.457l-3.162-4.999  c-0.65-1.044-0.318-2.325,0.743-2.878l3.012-1.548c1.065-0.542,2.395-0.1,2.964,0.983l2.498,4.804  c0.564,1.087,0.181,2.483-0.847,3.093l-2.15,1.287C1245.12-1037.089,1243.737-1037.427,1243.086-1038.457z M1255.941-1024.132  c-0.663-2.125-5.709-2.262-7.972-5.449c-2.264-3.185-0.393-4.811,0.393-5.571C1257.53-1040.318,1255.941-1024.132,1255.941-1024.132  z M1258.562-1056.568c0,1.001-0.812,1.826-1.824,1.826h-9.786c-0.132-0.533-0.326-1.058-0.6-1.561  c-0.268-0.474-1.015-1.897-1.959-3.701c-1.359-2.594-3.292-6.274-5.379-10.182h17.722c1.011,0,1.824,0.82,1.824,1.822v11.794  H1258.562z" fill="#FFFFFF"/><g><circle cx="75" cy="75" fill="#118ACB" opacity="0.1" r="75"/><path d="M75,0v150c41.42,0,75-33.579,75-75.001C150,33.578,116.42,0,75,0z" fill="#118ACB" opacity="0.1"/><circle cx="75" cy="75" fill="#118ACB" r="65.488"/><path d="M75,9.512v130.976c36.168,0,65.486-29.319,65.486-65.488C140.486,38.832,111.168,9.512,75,9.512z" fill="#1281BD"/><g><path d="M9.584,72.072c-0.041,0.971-0.072,1.945-0.072,2.927c0,36.169,29.32,65.488,65.488,65.488v-5.853    C39.812,134.635,11.117,106.882,9.584,72.072z" fill="#1281BD"/><path d="M140.414,72.072c-1.533,34.81-30.229,62.562-65.414,62.562v5.853c36.168,0,65.486-29.319,65.486-65.488    C140.486,74.018,140.457,73.043,140.414,72.072z" fill="#1178B1"/></g></g><path d="M31.421,83.393V71.595c0-1.002,0.814-1.822,1.824-1.822h20.399l-8.863,15.446H33.249  C32.235,85.219,31.421,84.394,31.421,83.393z M45.938,108.33l-6.78,4.609c-0.917,0.627-1.56,0.236-1.436-0.871l0.909-7.903  c0.126-1.096,1.016-1.55,1.974-0.996l5.249,3.011C46.82,106.733,46.857,107.701,45.938,108.33z M50.325,103.131  c-0.554,0.959-1.792,1.293-2.753,0.739l-5.25-3.016c-0.957-0.549-1.294-1.788-0.741-2.751l7.401-12.889l8.87-15.444l8.047-14.02  c0.548-0.957,1.792-1.297,2.751-0.739l5.246,3.007c0.963,0.559,1.294,1.794,0.741,2.752l-7.379,12.856l-6.644,11.588L50.325,103.131  z M64.817,85.219l8.863-15.446h8.029c3.105,7.061,5.423,11.989,7.167,15.446H64.817z M96.223,90.398  c-2.097-1.062-12.57-25.226-15.253-31.526c-2.684-6.311-10.788-23.089-8.172-24.399c1.871-0.931,8.571,12.279,13.586,20.211  c2.863,4.533,7.509,13.138,11.21,20.129c0.048,0.089,0.094,0.185,0.144,0.276c0.164,0.314,0.331,0.629,0.495,0.938  c0.05,0.09,0.094,0.174,0.138,0.259c0.15,0.276,0.289,0.549,0.431,0.819c0.08,0.159,0.162,0.31,0.242,0.453  c0.091,0.183,0.187,0.364,0.279,0.536c0.125,0.237,0.252,0.471,0.378,0.703c0.016,0.049,0.04,0.082,0.059,0.127  c1.603,3.043,2.827,5.389,3.312,6.295c0.038,0.072,0.078,0.143,0.104,0.193c1.289,2.336-1.227,4.288-2.631,4.863  C99.138,90.857,98.324,91.443,96.223,90.398z M103.104,101.503l-3.162-4.999c-0.65-1.044-0.318-2.324,0.743-2.879l3.012-1.547  c1.065-0.543,2.395-0.101,2.964,0.982l2.498,4.804c0.564,1.087,0.181,2.483-0.847,3.093l-2.15,1.287  C105.139,102.871,103.756,102.533,103.104,101.503z M115.96,115.828c-0.663-2.125-5.709-2.262-7.972-5.449  c-2.264-3.185-0.393-4.811,0.393-5.57C117.549,99.643,115.96,115.828,115.96,115.828z M118.581,83.393  c0,1.001-0.812,1.826-1.824,1.826h-9.786c-0.132-0.533-0.326-1.059-0.6-1.561c-0.268-0.475-1.015-1.898-1.959-3.701  c-1.359-2.594-3.292-6.274-5.379-10.182h17.722c1.011,0,1.824,0.82,1.824,1.822v11.795H118.581z" fill="#FFFFFF"/></svg>